<?xml version="1.0" encoding="UTF-8"?>
<svg width="1400px" height="1003px" viewBox="0 0 1400 1003" version="1.1" xmlns="http://www.w3.org/2000/svg" xmlns:xlink="http://www.w3.org/1999/xlink">
    <!-- Generator: Sketch 49.3 (51167) - http://www.bohemiancoding.com/sketch -->
    <title>Desktop HD</title>
    <desc>Created with Sketch.</desc>
    <defs></defs>
    <g id="Desktop-HD" stroke="none" stroke-width="1" fill="none" fill-rule="evenodd">
        <g id="x-axis" transform="translate(0.000000, 200.000000)" stroke="#636771">
            <g id="Path">
                <path d="M0,1.046875 L1400,1.046875"></path>
            </g>
            <g transform="translate(0.000000, 200.000000)" id="Path">
                <path d="M0,1.046875 L1400,1.046875"></path>
            </g>
            <g transform="translate(0.000000, 400.000000)" id="Path">
                <path d="M0,1.046875 L1400,1.046875"></path>
            </g>
            <g transform="translate(0.000000, 597.000000)" id="Path">
                <path d="M0,1.046875 L1400,1.046875"></path>
            </g>
        </g>
        <g id="y-axis" transform="translate(200.000000, 0.000000)" stroke="#636771">
            <g id="Path">
                <path d="M1.625,0 L1.625,1003"></path>
            </g>
            <g transform="translate(200.000000, 0.000000)" id="Path">
                <path d="M1.625,0 L1.625,1003"></path>
            </g>
            <g transform="translate(400.000000, 0.000000)" id="Path">
                <path d="M1.625,0 L1.625,1003"></path>
            </g>
            <g transform="translate(600.000000, 0.000000)" id="Path">
                <path d="M1.625,0 L1.625,1003"></path>
            </g>
            <g transform="translate(800.000000, 0.000000)" id="Path">
                <path d="M1.625,0 L1.625,1003"></path>
            </g>
            <g transform="translate(1000.000000, 0.000000)" id="Path">
                <path d="M1.625,0 L1.625,1003"></path>
            </g>
            <g transform="translate(1198.000000, 0.000000)" id="Path">
                <path d="M1.625,0 L1.625,1003"></path>
            </g>
        </g>
    </g>
</svg>